<svg width="20" height="17" viewBox="0 0 20 17" fill="none" xmlns="http://www.w3.org/2000/svg">
<path d="M7.85575 15C7.85575 14.2188 7.20843 13.5714 6.42718 13.5714C5.64593 13.5714 4.99861 14.2188 4.99861 15C4.99861 15.7812 5.64593 16.4286 6.42718 16.4286C7.20843 16.4286 7.85575 15.7812 7.85575 15ZM17.8557 15C17.8557 14.2188 17.2084 13.5714 16.4272 13.5714C15.6459 13.5714 14.9986 14.2188 14.9986 15C14.9986 15.7812 15.6459 16.4286 16.4272 16.4286C17.2084 16.4286 17.8557 15.7812 17.8557 15ZM19.2843 2.85714C19.2843 2.46652 18.9607 2.14286 18.57 2.14286H5.16602C5.05441 1.60714 5.03209 0.714285 4.28432 0.714285H1.42718C1.03655 0.714285 0.712891 1.03795 0.712891 1.42857C0.712891 1.8192 1.03655 2.14286 1.42718 2.14286H3.70396L5.67941 11.3281C5.50084 11.6741 4.99861 12.5112 4.99861 12.8571C4.99861 13.2478 5.32227 13.5714 5.71289 13.5714H17.1415C17.5321 13.5714 17.8557 13.2478 17.8557 12.8571C17.8557 12.4665 17.5321 12.1429 17.1415 12.1429H6.87361C6.98521 11.9196 7.14146 11.6853 7.14146 11.4286C7.14146 11.1607 7.05218 10.904 6.99637 10.6473L18.6482 9.28571C19.0053 9.24107 19.2843 8.92857 19.2843 8.57143V2.85714Z" fill="white"/>
</svg>
