<svg width="91" height="56" viewBox="0 0 91 56" fill="none" xmlns="http://www.w3.org/2000/svg">
<path d="M52.3472 18.3166V18.7754C52.3472 18.9913 52.2941 19.2072 52.2144 19.4231C52.1347 19.612 52.0019 19.801 51.8691 19.9629C51.7097 20.1248 51.5503 20.2328 51.3378 20.3407C51.1518 20.4217 50.9127 20.4757 50.7002 20.4757C50.5142 20.4757 50.3017 20.4487 50.1157 20.3947C49.9032 20.3407 49.7438 20.2328 49.5579 20.0978C49.3985 19.9629 49.2657 19.774 49.1594 19.5581C49.0531 19.3422 49 19.0723 49 18.7214V14.7002C49 14.4573 49.0531 14.2414 49.1328 14.0255C49.2125 13.8096 49.3188 13.6477 49.4782 13.4858C49.6376 13.3239 49.797 13.2159 50.0095 13.1349C50.222 13.054 50.4345 13 50.7002 13C51.1784 13 51.5768 13.1619 51.8956 13.4858C52.055 13.6477 52.1613 13.8366 52.241 14.0525C52.3207 14.2684 52.3738 14.5113 52.3738 14.7542V15.159H51.3112V14.8082C51.3112 14.5923 51.2581 14.4304 51.1518 14.2684C51.0455 14.1065 50.8861 14.0525 50.6736 14.0525C50.408 14.0525 50.2486 14.1335 50.1689 14.2954C50.0892 14.4573 50.0361 14.6733 50.0361 14.9161V18.6405C50.0361 18.8564 50.0892 19.0183 50.1689 19.1802C50.2486 19.3152 50.4345 19.3961 50.6471 19.3961C50.7268 19.3961 50.7799 19.3961 50.8596 19.3692C50.9393 19.3422 51.019 19.3152 51.0721 19.2612C51.1252 19.2072 51.1784 19.1263 51.2315 19.0453C51.2846 18.9373 51.2846 18.8294 51.2846 18.6945V18.3436H52.3472V18.3166Z" fill="#2979FF"/>
<path d="M55.1366 14.8082C55.1366 14.5113 55.1898 14.2414 55.296 14.0255C55.4023 13.8096 55.5351 13.6207 55.6945 13.4588C55.8539 13.3239 56.0399 13.2159 56.2524 13.1349C56.4649 13.054 56.6774 13.027 56.8634 13.027C57.0759 13.027 57.2884 13.054 57.4744 13.1349C57.6869 13.2159 57.8729 13.3239 58.0323 13.4588C58.1917 13.6207 58.3245 13.8096 58.4307 14.0255C58.537 14.2414 58.5901 14.5113 58.5901 14.8082V18.6675C58.5901 18.9643 58.537 19.2342 58.4307 19.4501C58.3245 19.666 58.1917 19.8549 58.0323 19.9899C57.8729 20.1518 57.6869 20.2598 57.4744 20.3407C57.2619 20.4217 57.0493 20.4487 56.8634 20.4487C56.6509 20.4487 56.4383 20.4217 56.2524 20.3407C56.0399 20.2598 55.8539 20.1518 55.6945 19.9899C55.5351 19.8549 55.4023 19.666 55.296 19.4501C55.1898 19.2342 55.1366 18.9643 55.1366 18.6675V14.8082ZM56.1727 18.6675C56.1727 18.9104 56.2524 19.0993 56.3852 19.2342C56.518 19.3422 56.6774 19.4231 56.8634 19.4231C57.0493 19.4231 57.2087 19.3692 57.3416 19.2342C57.4744 19.1263 57.5541 18.9374 57.5541 18.6675V14.8082C57.5541 14.5653 57.4744 14.3764 57.3416 14.2414C57.2087 14.1335 57.0493 14.0525 56.8634 14.0525C56.6774 14.0525 56.518 14.1065 56.3852 14.2414C56.2524 14.3494 56.1727 14.5383 56.1727 14.8082V18.6675Z" fill="#2979FF"/>
<path d="M61.5389 20.3947V13.081H62.5218L63.8501 16.9402H63.8767L65.1784 13.081H66.1878V20.3947H65.1518V15.9417H65.1252L64.1157 19.0723H63.611L62.6015 15.9417H62.5749V20.3947H61.5389Z" fill="#2979FF"/>
<path d="M69.1898 20.3947V13.081H70.7306C71.0228 13.081 71.2619 13.108 71.4744 13.1889C71.6869 13.2699 71.8729 13.4048 72.0588 13.5937C72.2448 13.7827 72.351 13.9986 72.4307 14.2684C72.5104 14.5383 72.537 14.8622 72.537 15.321C72.537 15.6448 72.5104 15.9147 72.4839 16.1576C72.4573 16.3735 72.3776 16.5894 72.2448 16.8053C72.112 17.0482 71.926 17.2371 71.6869 17.372C71.4478 17.507 71.129 17.561 70.7571 17.561H70.2258V20.4217H69.1898V20.3947ZM70.1992 14.0795V16.5624H70.704C70.9165 16.5624 71.0759 16.5354 71.1822 16.4814C71.2884 16.4275 71.3681 16.3465 71.4478 16.2116C71.501 16.1036 71.5275 15.9957 71.5541 15.8337C71.5541 15.6718 71.5807 15.5099 71.5807 15.321C71.5807 15.159 71.5807 14.9971 71.5807 14.8352C71.5807 14.6733 71.5541 14.5383 71.501 14.4304C71.4478 14.3224 71.3681 14.2145 71.2619 14.1605C71.1556 14.1065 70.9962 14.0795 70.7837 14.0795H70.1992Z" fill="#2979FF"/>
<path d="M74.4763 20.3947L76.0702 13.081H76.9203L78.5142 20.3947H77.4782L77.186 18.8294H75.778L75.4858 20.3947H74.4763ZM77.0266 17.8308L76.5218 15.186H76.4953L75.9905 17.8308H77.0266Z" fill="#2979FF"/>
<path d="M81.0379 20.3947V13.081H82.0209L83.5882 17.48H83.6148V13.081H84.6509V20.3947H83.6679L82.1006 15.9957H82.074V20.3947H81.0379Z" fill="#2979FF"/>
<path d="M88.556 20.3947V17.2911L87.148 13.081H88.2372L89.0607 15.9957H89.0873L89.9108 13.081H91L89.592 17.2911V20.3947H88.556Z" fill="#2979FF"/>
<g clip-path="url(#clip0_1155_2560)">
<path d="M18.6755 27.3658C18.0114 27.3118 17.3472 27.3118 16.6831 27.3118C13.7343 27.3118 10.6793 27.7166 7.65085 28.4723C6.6148 28.7422 5.60531 29.039 4.62239 29.3629V7.50265C6.26945 6.72 8.04934 6.0453 9.90892 5.58651C12.1935 4.99277 14.4782 4.6959 16.6565 4.6959C17.3472 4.6959 18.0114 4.72289 18.649 4.77687V4.85783C19.3928 5.07374 20.1632 5.26265 20.9601 5.39759C21.704 5.53253 22.4744 5.61349 23.2713 5.66747V0.890603C21.3321 0.296867 19.1006 0 16.6831 0C14.186 0 11.5028 0.323855 8.79317 1.02554C5.49905 1.86217 2.52372 3.15759 0.0265656 4.72289V36.7036C2.52372 35.1383 5.52562 33.8699 8.81973 33.0063C11.5294 32.3046 14.2125 31.9807 16.7097 31.9807C17.4004 31.9807 18.0645 32.0077 18.7021 32.0617V27.3658H18.6755Z" fill="#2979FF"/>
<path d="M33.2068 4.72289C30.4972 5.42458 27.814 5.74843 25.3169 5.74843C24.6262 5.74843 23.962 5.72145 23.3245 5.66747C22.5275 5.61349 21.7571 5.50554 21.0133 5.39759C20.2163 5.26265 19.4459 5.07374 18.7021 4.85783V27.3388V32.0617V36.8655C20.6679 37.4323 22.926 37.7561 25.3435 37.7561C27.8406 37.7561 30.5237 37.4323 33.2334 36.7306C36.5275 35.894 39.5028 34.5986 42.0266 33.0333V1.05253C39.4763 2.59084 36.5009 3.88627 33.2068 4.72289ZM37.351 30.2535C35.704 31.0361 33.9241 31.7108 32.0645 32.1696C29.7799 32.7634 27.4953 33.0602 25.3169 33.0602C24.6262 33.0602 23.962 33.0333 23.3245 32.9793V32.8983V10.3904C23.9886 10.4443 24.6528 10.4443 25.3169 10.4443C28.2657 10.4443 31.3207 10.0395 34.3491 9.28386C35.3852 9.01398 36.3947 8.71711 37.3776 8.39325V30.2535H37.351Z" fill="#061E5C"/>
</g>
<path d="M49.5047 23.8761V22.4728H49V22.1759H50.3283V22.4728H49.8235V23.8761H49.5047Z" fill="#061E5C"/>
<path d="M54.2068 23.8761H53.8349L53.7021 23.4983H53.0379L52.9051 23.8761H52.5598L53.1973 22.1759H53.5427L54.2068 23.8761ZM53.5693 23.2014L53.3302 22.5807L53.0911 23.2014H53.5693Z" fill="#061E5C"/>
<path d="M57.315 23.2554V22.9855H58.0323V23.6602C57.8463 23.8222 57.6072 23.9301 57.315 23.9301C57.0228 23.9301 56.8368 23.8492 56.6774 23.6872C56.5446 23.5253 56.4649 23.3094 56.4649 23.0395C56.4649 22.7427 56.5446 22.5268 56.704 22.3918C56.8634 22.2569 57.0493 22.1759 57.2884 22.1759C57.6869 22.1759 57.926 22.3378 58.0057 22.6617L57.6603 22.7157C57.6072 22.5268 57.4744 22.4458 57.2884 22.4458C56.9696 22.4458 56.8102 22.6347 56.8102 23.0125C56.8102 23.2015 56.8634 23.3364 56.9431 23.4443C57.0228 23.5523 57.1556 23.6063 57.2884 23.6063C57.4212 23.6063 57.5541 23.5523 57.6869 23.4713V23.2554H57.315Z" fill="#061E5C"/>
<path d="M62.5218 23.8761V22.1759H62.8672V23.5793H63.7173V23.8761H62.5218Z" fill="#061E5C"/>
<path d="M66.0816 23.8761V22.1759H66.427V23.8761H66.0816Z" fill="#061E5C"/>
<path d="M68.871 23.8761V22.1759H69.1898L69.8805 23.3094V22.1759H70.1992V23.8761H69.8539L69.1898 22.7696V23.8761H68.871Z" fill="#061E5C"/>
<path d="M72.723 23.8761V22.1759H73.9715V22.4728H73.0683V22.8506H73.9184V23.1475H73.0683V23.6063H73.9715V23.9031H72.723V23.8761Z" fill="#061E5C"/>
<path d="M78.3548 23.8761V22.1759H78.7002V22.8506H79.3643V22.1759H79.7097V23.8761H79.3643V23.1475H78.7002V23.8761H78.3548Z" fill="#061E5C"/>
<path d="M82.1803 23.8761V22.1759H83.4288V22.4728H82.5256V22.8506H83.3757V23.1475H82.5256V23.6063H83.4554V23.9031H82.1803V23.8761Z" fill="#061E5C"/>
<path d="M85.8994 23.8761V22.1759H86.6167C86.8292 22.1759 86.9886 22.2029 87.1214 22.2839C87.2277 22.3378 87.2808 22.4728 87.2808 22.6617C87.2808 22.9316 87.1214 23.0935 86.8292 23.1205C86.9355 23.1745 87.0683 23.3094 87.2011 23.5253L87.4137 23.8492H86.9886L86.6167 23.3094C86.5901 23.2554 86.537 23.2015 86.4839 23.1745C86.4307 23.1475 86.3776 23.1475 86.2713 23.1475H86.1917V23.8492H85.8994V23.8761ZM86.2448 22.8776H86.4839C86.6433 22.8776 86.7761 22.8506 86.8292 22.8236C86.8824 22.7966 86.9089 22.7427 86.9089 22.6347C86.9089 22.5537 86.8824 22.4998 86.8292 22.4728C86.7761 22.4458 86.6698 22.4188 86.4839 22.4188H86.2182V22.8776H86.2448Z" fill="#061E5C"/>
<path d="M89.7249 23.8761V22.1759H90.9734V22.4728H90.0702V22.8506H90.9203V23.1475H90.0702V23.6063H91V23.9031H89.7249V23.8761Z" fill="#061E5C"/>
<defs>
<clipPath id="clip0_1155_2560">
<rect width="42" height="56" fill="white"/>
</clipPath>
</defs>
</svg>
