<svg width="32" height="32" viewBox="0 0 32 32" fill="none" xmlns="http://www.w3.org/2000/svg">
<path d="M16.8 8V14.4H23.2C23.2 12.7026 22.5257 11.0747 21.3255 9.87452C20.1253 8.67428 18.4974 8 16.8 8ZM21.856 19.112C22.696 18.032 23.2 16.672 23.2 15.2H11.552L10.8 13.6H8V15.2H9.776C9.776 15.2 11.288 18.456 11.472 18.736C10.592 19.2 10 20.136 10 21.2C10 21.9426 10.295 22.6548 10.8201 23.1799C11.3452 23.705 12.0574 24 12.8 24C14.208 24 15.376 22.96 15.568 21.6H17.232C17.424 22.96 18.592 24 20 24C20.7426 24 21.4548 23.705 21.9799 23.1799C22.505 22.6548 22.8 21.9426 22.8 21.2C22.8 20.368 22.432 19.624 21.856 19.112ZM12.8 22.4C12.4817 22.4 12.1765 22.2736 11.9515 22.0485C11.7264 21.8235 11.6 21.5183 11.6 21.2C11.6 20.8817 11.7264 20.5765 11.9515 20.3515C12.1765 20.1264 12.4817 20 12.8 20C13.1183 20 13.4235 20.1264 13.6485 20.3515C13.8736 20.5765 14 20.8817 14 21.2C14 21.5183 13.8736 21.8235 13.6485 22.0485C13.4235 22.2736 13.1183 22.4 12.8 22.4ZM20 22.4C19.6817 22.4 19.3765 22.2736 19.1515 22.0485C18.9264 21.8235 18.8 21.5183 18.8 21.2C18.8 20.8817 18.9264 20.5765 19.1515 20.3515C19.3765 20.1264 19.6817 20 20 20C20.3183 20 20.6235 20.1264 20.8485 20.3515C21.0736 20.5765 21.2 20.8817 21.2 21.2C21.2 21.5183 21.0736 21.8235 20.8485 22.0485C20.6235 22.2736 20.3183 22.4 20 22.4Z" fill="#2264D1"/>
</svg>
