<svg width="32" height="32" viewBox="0 0 32 32" fill="none" xmlns="http://www.w3.org/2000/svg">
<path d="M11.864 20.896C11.2 19.968 11.2 18.896 11.2 17.832C12.536 18.632 13.864 19.432 14.536 20.368L14.8 20.816V18.992C13.6 18.272 12.464 17.536 11.864 16.696C11.2 15.768 11.2 14.696 11.2 13.632C12.536 14.432 13.864 15.232 14.536 16.168L14.8 16.632V14.792C13.6 14.072 12.464 13.336 11.864 12.496C11.2 11.568 11.2 10.496 11.2 9.43201C12.536 10.232 13.864 11.032 14.536 11.968C14.616 12.08 14.688 12.2 14.752 12.328C14.616 11.832 14.528 11.368 14.52 10.888C14.512 9.68001 15.04 8.44001 15.568 7.20001C16.12 8.38401 16.672 9.57601 16.68 10.784C16.688 11.288 16.6 11.8 16.456 12.304C16.52 12.192 16.584 12.08 16.664 11.968C17.336 11.032 18.664 10.232 20 9.43201C20 10.496 20 11.568 19.336 12.496C18.736 13.336 17.6 14.072 16.4 14.792V16.632L16.664 16.168C17.336 15.232 18.664 14.432 20 13.632C20 14.696 20 15.768 19.336 16.696C18.736 17.536 17.6 18.272 16.4 18.992V20.816L16.664 20.368C17.336 19.432 18.664 18.632 20 17.832C20 18.896 20 19.968 19.336 20.896C18.736 21.736 17.6 22.472 16.4 23.192V24.632H14.8V23.192C13.6 22.472 12.464 21.736 11.864 20.896Z" fill="#2264D1"/>
</svg>
