<svg width="32" height="32" viewBox="0 0 32 32" fill="none" xmlns="http://www.w3.org/2000/svg">
<path d="M9 14L10.5 9.5H21.5L23 14H9ZM21.5 19C21.1022 19 20.7206 18.842 20.4393 18.5607C20.158 18.2794 20 17.8978 20 17.5C20 17.1022 20.158 16.7206 20.4393 16.4393C20.7206 16.158 21.1022 16 21.5 16C21.8978 16 22.2794 16.158 22.5607 16.4393C22.842 16.7206 23 17.1022 23 17.5C23 17.8978 22.842 18.2794 22.5607 18.5607C22.2794 18.842 21.8978 19 21.5 19ZM10.5 19C10.1022 19 9.72064 18.842 9.43934 18.5607C9.15804 18.2794 9 17.8978 9 17.5C9 17.1022 9.15804 16.7206 9.43934 16.4393C9.72064 16.158 10.1022 16 10.5 16C10.8978 16 11.2794 16.158 11.5607 16.4393C11.842 16.7206 12 17.1022 12 17.5C12 17.8978 11.842 18.2794 11.5607 18.5607C11.2794 18.842 10.8978 19 10.5 19ZM22.92 9C22.72 8.42 22.16 8 21.5 8H10.5C9.84 8 9.28 8.42 9.08 9L7 15V23C7 23.2652 7.10536 23.5196 7.29289 23.7071C7.48043 23.8946 7.73478 24 8 24H9C9.26522 24 9.51957 23.8946 9.70711 23.7071C9.89464 23.5196 10 23.2652 10 23V22H22V23C22 23.2652 22.1054 23.5196 22.2929 23.7071C22.4804 23.8946 22.7348 24 23 24H24C24.2652 24 24.5196 23.8946 24.7071 23.7071C24.8946 23.5196 25 23.2652 25 23V15L22.92 9Z" fill="#2264D1"/>
</svg>
