<svg width="32" height="32" viewBox="0 0 32 32" fill="none" xmlns="http://www.w3.org/2000/svg">
<path d="M14.9838 8C14.8158 8 14.5918 8.096 14.3518 8.256C13.8958 8.56 12.9758 9.52 12.6158 10.48C12.3438 11.2 12.3358 11.856 12.4478 12.344C11.9998 12.424 11.6718 12.568 11.5438 12.624C11.1358 12.8 10.2718 13.568 10.1918 14.76C10.1678 15.176 10.2238 15.6 10.3518 16C9.82379 16.152 9.51979 16.344 9.49579 16.352C9.23979 16.448 8.81579 16.744 8.69579 16.904C8.41579 17.224 8.23179 17.6 8.12779 18C7.89579 18.872 7.97579 19.864 8.39979 20.664C8.63179 21.112 8.95179 21.6 9.30379 21.944C10.4558 23.128 12.4398 23.576 14.0078 23.832C15.9198 24.152 17.9198 24.04 19.7038 23.304C22.3838 22.192 23.0958 20.4 23.2078 19.912C23.4398 18.8 23.1518 17.752 23.0318 17.496C22.8558 17.128 22.5678 16.752 22.0958 16.512C21.7758 16.312 21.4958 16.208 21.2878 16.16C21.4958 15.4 21.1998 14.8 20.7918 14.352C20.1758 13.696 19.5438 13.6 19.5438 13.6C19.7518 13.2 19.8318 12.72 19.7198 12.256C19.5918 11.688 19.2798 11.328 18.8718 11.088C18.4558 10.84 17.9438 10.72 17.4158 10.624C17.1598 10.576 16.0958 10.424 15.6558 9.816C15.2958 9.32 15.2878 8.424 15.1918 8.16C15.1518 8.056 15.0958 8 14.9838 8ZM18.6958 14.088C18.7518 14.088 18.7998 14.096 18.8478 14.096C19.9918 14.224 20.8078 15.328 20.6718 16.552C20.5358 17.776 19.4958 18.672 18.3518 18.544C17.2078 18.4 16.3918 17.32 16.5278 16.088C16.6558 14.928 17.6078 14.048 18.6958 14.088ZM12.7918 14.088C13.8558 14.12 14.7438 15.024 14.8238 16.168C14.9198 17.4 14.0638 18.464 12.9198 18.552H12.9118C11.7678 18.64 10.7598 17.712 10.6638 16.48C10.5758 15.248 11.4318 14.184 12.5758 14.096C12.6478 14.088 12.7198 14.088 12.7918 14.088ZM12.8078 15.448C12.7758 15.448 12.7518 15.448 12.7198 15.456C12.2718 15.512 11.9518 15.92 12.0078 16.36C12.0558 16.8 12.4638 17.112 12.9118 17.056C13.3598 17 13.6798 16.592 13.6318 16.152C13.5838 15.736 13.2158 15.44 12.8078 15.448ZM18.6478 15.464C18.2318 15.48 17.8958 15.8 17.8638 16.224C17.8318 16.664 18.1758 17.048 18.6238 17.072C19.0958 17.104 19.4638 16.76 19.4958 16.32C19.5278 15.872 19.1838 15.488 18.7358 15.464C18.6958 15.464 18.6958 15.464 18.6478 15.464ZM12.8638 19.32C13.0958 19.312 13.3038 19.384 13.4958 19.424C14.4398 19.6 15.2558 19.624 15.6478 19.624C16.0398 19.624 16.8478 19.6 17.7838 19.424C18.1118 19.36 18.4878 19.224 18.7838 19.424C19.1678 19.68 18.8878 20.6 18.2958 21.224C17.9278 21.6 17.0718 22.328 15.6478 22.328C14.2238 22.328 13.3598 21.6 12.9998 21.224C12.4078 20.6 12.1278 19.68 12.5038 19.424C12.6158 19.352 12.7358 19.32 12.8638 19.32Z" fill="#2264D1"/>
</svg>
