<svg width="32" height="32" viewBox="0 0 32 32" fill="none" xmlns="http://www.w3.org/2000/svg">
<path d="M18.8 23.2L17.6 12.8H19.384L18.48 9.16799L19.872 8.79999L20.872 12.8H24L22.8 23.2H18.8ZM10.4 15.2H14.4C15.0365 15.2 15.647 15.4528 16.0971 15.9029C16.5471 16.353 16.8 16.9635 16.8 17.6H8C8 16.9635 8.25286 16.353 8.70294 15.9029C9.15303 15.4528 9.76348 15.2 10.4 15.2ZM16.8 20.8C16.8 21.4365 16.5471 22.047 16.0971 22.497C15.647 22.9471 15.0365 23.2 14.4 23.2H10.4C9.76348 23.2 9.15303 22.9471 8.70294 22.497C8.25286 22.047 8 21.4365 8 20.8H16.8ZM8.8 18.4H12.8L14 19.6L15.2 18.4H16C16.2122 18.4 16.4157 18.4843 16.5657 18.6343C16.7157 18.7843 16.8 18.9878 16.8 19.2C16.8 19.4122 16.7157 19.6156 16.5657 19.7657C16.4157 19.9157 16.2122 20 16 20H8.8C8.58783 20 8.38434 19.9157 8.23431 19.7657C8.08429 19.6156 8 19.4122 8 19.2C8 18.9878 8.08429 18.7843 8.23431 18.6343C8.38434 18.4843 8.58783 18.4 8.8 18.4Z" fill="#2264D1"/>
</svg>
